<svg width="76" height="76" viewBox="0 0 76 76" fill="none" xmlns="http://www.w3.org/2000/svg">
<circle cx="38" cy="38" r="38" fill="#E4E4E4"/>
<path d="M29.1434 26.763L25.8292 22.2403C24.8038 20.4093 25.8292 17.9008 27.6602 17.9008H49.4862C51.3173 17.9008 52.2694 20.4276 51.3173 22.2403L47.8566 26.763" stroke="black" stroke-width="1.56" stroke-linecap="round" stroke-linejoin="round"/>
<path d="M53.6061 56.3526C53.6738 57.0015 53.4861 57.6513 53.0827 58.164C52.6793 58.6768 52.0921 59.0122 51.4455 59.0992H25.5545C24.9079 59.0122 24.3207 58.6768 23.9173 58.164C23.5139 57.6513 23.3262 57.0015 23.3939 56.3526V37.1267C23.3939 31.0659 27.2574 26.1404 32.0181 26.1404H44.9819C49.7426 26.1404 53.6061 31.0659 53.6061 37.1267V56.3526Z" stroke="black" stroke-width="1.56" stroke-linecap="round" stroke-linejoin="round"/>
<path d="M31.304 49.8231C32.0003 50.5428 32.8703 51.0783 33.8634 51.3987C34.8565 51.7191 35.9529 51.8179 37.0891 51.6895C38.2253 51.5611 39.3786 51.208 40.4821 50.6506C41.5855 50.0933 42.6172 49.3428 43.5173 48.4428C44.4173 47.5427 45.1678 46.511 45.7251 45.4075C46.2825 44.3041 46.6356 43.1508 46.764 42.0146C46.8924 40.8784 46.7936 39.7819 46.4732 38.7889C46.1528 37.7958 45.6173 36.9258 44.8977 36.2295C44.1981 35.5195 43.3275 34.9928 42.3359 34.6798C41.3444 34.3667 40.2515 34.2734 39.12 34.4052C37.9885 34.537 36.8409 34.8914 35.743 35.4479C34.6451 36.0044 33.6186 36.752 32.7227 37.6479C31.8267 38.5437 31.0789 39.5701 30.5222 40.6679C29.9655 41.7658 29.611 42.9134 29.479 44.0449C29.347 45.1764 29.4401 46.2694 29.753 47.261C30.0659 48.2527 30.5942 49.1234 31.304 49.8231Z" stroke="black" stroke-width="1.56" stroke-linecap="round" stroke-linejoin="round"/>
<path d="M46.1538 38.0789L41.7776 38.7563C40.796 38.9239 39.8999 39.4186 39.2351 40.1599C38.5702 40.9012 38.1757 41.8456 38.1155 42.8396C38.1473 43.8989 37.7937 44.9338 37.1202 45.7521C36.4467 46.5704 35.4991 47.1165 34.4534 47.289L30.0772 47.9665" stroke="black" stroke-width="1.56" stroke-linecap="round" stroke-linejoin="round"/>
</svg>
