<svg width="76" height="76" viewBox="0 0 76 76" fill="none" xmlns="http://www.w3.org/2000/svg">
<circle cx="38" cy="38" r="38" fill="#E4E4E4"/>
<path d="M53.976 20.5342C54.1688 20.4663 54.376 20.4501 54.5769 20.4874C54.7778 20.5247 54.9654 20.614 55.121 20.7465C55.2766 20.8791 55.3946 21.0501 55.4633 21.2426C55.532 21.435 55.549 21.6421 55.5125 21.8432C54.8487 25.5692 52.7636 33.0741 46.7859 32.5957C45.3296 32.4796 43.9792 31.7897 43.0316 30.6779C42.5624 30.1273 42.2062 29.4898 41.9834 28.8016C41.7606 28.1134 41.6755 27.3881 41.733 26.667C41.7905 25.946 41.9895 25.2433 42.3185 24.5991C42.6476 23.955 43.1003 23.3819 43.6508 22.9127C44.7627 21.9651 46.2054 21.498 47.6617 21.6142C49.8168 21.6704 51.9621 21.3035 53.976 20.5342Z" stroke="black" stroke-width="1.56" stroke-linecap="round" stroke-linejoin="round"/>
<path d="M38 55.5313V36.13C38 33.6503 38.9851 31.272 40.7386 29.5186C42.492 27.7651 44.8702 26.78 47.35 26.78" stroke="black" stroke-width="1.56" stroke-linecap="round" stroke-linejoin="round"/>
<path d="M22.024 20.5342C21.8312 20.4663 21.624 20.4501 21.4231 20.4874C21.2222 20.5247 21.0346 20.614 20.879 20.7465C20.7234 20.8791 20.6054 21.0501 20.5367 21.2426C20.468 21.435 20.451 21.6421 20.4874 21.8432C21.1513 25.5692 23.2363 33.0741 29.2141 32.5957C29.9352 32.5382 30.6378 32.3393 31.282 32.0102C31.9262 31.6811 32.4992 31.2284 32.9684 30.6779C33.4376 30.1273 33.7938 29.4898 34.0166 28.8016C34.2394 28.1134 34.3245 27.3881 34.267 26.667C34.2095 25.946 34.0105 25.2433 33.6815 24.5991C33.3524 23.955 32.8997 23.3819 32.3492 22.9127C31.7986 22.4435 31.1611 22.0874 30.4729 21.8645C29.7847 21.6417 29.0594 21.5566 28.3383 21.6142C26.1832 21.6704 24.0379 21.3035 22.024 20.5342Z" stroke="black" stroke-width="1.56" stroke-linecap="round" stroke-linejoin="round"/>
<path d="M38 36.13C38 33.6503 37.0149 31.272 35.2614 29.5186C33.508 27.7651 31.1298 26.78 28.65 26.78" stroke="black" stroke-width="1.56" stroke-linecap="round" stroke-linejoin="round"/>
<path d="M42.675 42.675H55.5313" stroke="black" stroke-width="1.56" stroke-linecap="round" stroke-linejoin="round"/>
<path d="M20.4688 42.675H33.325" stroke="black" stroke-width="1.56" stroke-linecap="round" stroke-linejoin="round"/>
<path d="M38 47.35H39.1688C39.9362 47.35 40.6961 47.5011 41.4051 47.7948C42.1141 48.0885 42.7583 48.5189 43.3009 49.0616C43.8435 49.6042 44.274 50.2484 44.5677 50.9574C44.8613 51.6664 45.0125 52.4263 45.0125 53.1937" stroke="black" stroke-width="1.56" stroke-linecap="round" stroke-linejoin="round"/>
<path d="M38 50.8563H35.6625C34.4226 50.8563 33.2335 51.3488 32.3568 52.2255C31.48 53.1023 30.9875 54.2914 30.9875 55.5313" stroke="black" stroke-width="1.56" stroke-linecap="round" stroke-linejoin="round"/>
</svg>
