<svg width="76" height="76" viewBox="0 0 76 76" fill="none" xmlns="http://www.w3.org/2000/svg">
<circle cx="38" cy="38" r="38" fill="#E4E4E4"/>
<path d="M19.7773 28.6752C19.7773 29.7112 19.9814 30.7371 20.3779 31.6942C20.7743 32.6514 21.3554 33.521 22.088 34.2536C22.8206 34.9862 23.6902 35.5673 24.6474 35.9637C25.6045 36.3602 26.6304 36.5643 27.6664 36.5643C28.7024 36.5643 29.7283 36.3602 30.6854 35.9637C31.6426 35.5673 32.5122 34.9862 33.2448 34.2536C33.9774 33.521 34.5585 32.6514 34.9549 31.6942C35.3514 30.7371 35.5555 29.7112 35.5555 28.6752C35.5555 26.5829 34.7243 24.5763 33.2448 23.0968C31.7653 21.6173 29.7587 20.7861 27.6664 20.7861C25.5741 20.7861 23.5675 21.6173 22.088 23.0968C20.6085 24.5763 19.7773 26.5829 19.7773 28.6752Z" stroke="black" stroke-width="1.56" stroke-linecap="round" stroke-linejoin="round"/>
<path d="M19.7773 49.4533C19.7773 50.4893 19.9814 51.5152 20.3779 52.4723C20.7743 53.4295 21.3554 54.2992 22.088 55.0317C22.8206 55.7643 23.6902 56.3454 24.6474 56.7419C25.6045 57.1383 26.6304 57.3424 27.6664 57.3424C28.7024 57.3424 29.7283 57.1383 30.6854 56.7419C31.6426 56.3454 32.5122 55.7643 33.2448 55.0317C33.9774 54.2992 34.5585 53.4295 34.9549 52.4723C35.3514 51.5152 35.5555 50.4893 35.5555 49.4533C35.5555 47.361 34.7243 45.3544 33.2448 43.8749C31.7653 42.3954 29.7587 41.5643 27.6664 41.5643C25.5741 41.5643 23.5675 42.3954 22.088 43.8749C20.6085 45.3544 19.7773 47.361 19.7773 49.4533Z" stroke="black" stroke-width="1.56" stroke-linecap="round" stroke-linejoin="round"/>
<path d="M40.5555 28.6752C40.5555 30.7675 41.3866 32.7741 42.8661 34.2536C44.3456 35.7331 46.3522 36.5643 48.4445 36.5643C50.5369 36.5643 52.5435 35.7331 54.023 34.2536C55.5024 32.7741 56.3336 30.7675 56.3336 28.6752C56.3336 26.5829 55.5024 24.5763 54.023 23.0968C52.5435 21.6173 50.5369 20.7861 48.4445 20.7861C46.3522 20.7861 44.3456 21.6173 42.8661 23.0968C41.3866 24.5763 40.5555 26.5829 40.5555 28.6752Z" stroke="black" stroke-width="1.56" stroke-linecap="round" stroke-linejoin="round"/>
<path d="M40.5555 49.4533C40.5555 51.5456 41.3866 53.5523 42.8661 55.0317C44.3456 56.5112 46.3522 57.3424 48.4445 57.3424C50.5369 57.3424 52.5435 56.5112 54.023 55.0317C55.5024 53.5523 56.3336 51.5456 56.3336 49.4533C56.3336 47.361 55.5024 45.3544 54.023 43.8749C52.5435 42.3954 50.5369 41.5643 48.4445 41.5643C46.3522 41.5643 44.3456 42.3954 42.8661 43.8749C41.3866 45.3544 40.5555 47.361 40.5555 49.4533Z" stroke="black" stroke-width="1.56" stroke-linecap="round" stroke-linejoin="round"/>
</svg>
