<svg width="76" height="76" viewBox="0 0 76 76" fill="none" xmlns="http://www.w3.org/2000/svg">
<circle cx="38" cy="38" r="38" fill="#E4E4E4"/>
<path d="M50.7222 23.5312L45.7345 24.2435L44.4839 19.3638L40.1498 21.9309L37.1267 17.9008L34.1037 21.9309L28.7113 19.6476L26.7685 26.7685L19.6476 28.7112L21.9309 34.1036L17.9008 37.1267L21.9309 40.1497L19.3638 44.4838L24.2435 45.7344" stroke="black" stroke-width="1.56" stroke-linecap="round" stroke-linejoin="round"/>
<path d="M20.9421 20.9421L26.7685 26.7685" stroke="black" stroke-width="1.56" stroke-linecap="round" stroke-linejoin="round"/>
<path d="M39.3917 29.0353L39.7158 26.7685L35.184 27.4167" stroke="black" stroke-width="1.56" stroke-linecap="round" stroke-linejoin="round"/>
<path d="M28.5501 39.4613L26.7685 39.7158L27.4167 35.184" stroke="black" stroke-width="1.56" stroke-linecap="round" stroke-linejoin="round"/>
<path d="M34.0469 49.5851C34.6421 50.1801 35.4324 50.5684 36.3727 50.7277C37.313 50.8869 38.3849 50.8142 39.5271 50.5135C41.8339 49.9062 44.2873 48.4075 46.3476 46.347C47.3677 45.3267 48.2606 44.1992 48.9753 43.0289C49.69 41.8587 50.2125 40.6685 50.513 39.5263C50.8135 38.3841 50.886 37.3124 50.7265 36.3722C50.567 35.4321 50.1785 34.6419 49.5833 34.0469C48.3812 32.8452 46.4099 32.5113 44.1031 33.1186C41.7962 33.7259 39.3428 35.2246 37.2826 37.2851C35.2223 39.3456 33.724 41.7991 33.1172 44.1058C32.5104 46.4125 32.8448 48.3835 34.0469 49.5851Z" stroke="black" stroke-width="1.56" stroke-linecap="round" stroke-linejoin="round"/>
<path d="M32.8604 46.8862L26.2778 53.4688L31.7471 54.6388L32.5162 57.6362L36.9949 56.0139L39.8733 59.0992L43.2387 55.9407L47.2304 57.6362L48.481 52.7565L53.4688 53.4688L52.7565 48.481L57.6362 47.2304L55.0691 42.8963L59.0992 39.8733L55.8711 36.4126L57.3524 31.4578L50.2315 29.5151L46.8843 32.8622" stroke="black" stroke-width="1.56" stroke-linecap="round" stroke-linejoin="round"/>
</svg>
