<svg width="76" height="76" viewBox="0 0 76 76" fill="none" xmlns="http://www.w3.org/2000/svg">
<circle cx="38" cy="38" r="38" fill="#E4E4E4"/>
<path d="M53.9611 32.9977C53.0561 32.9984 52.16 32.8201 51.3243 32.473C50.4886 32.1259 49.7299 31.6168 49.0918 30.9752C48.4537 30.3335 47.9489 29.5719 47.6065 28.7343C47.264 27.8967 47.0907 26.9996 47.0965 26.0947C46.0547 26.8947 44.8035 27.3762 43.4941 27.4808C42.1847 27.5854 40.873 27.3088 39.7174 26.6843C38.2063 25.8713 37.0547 24.5217 36.4897 22.9015C35.9246 21.2813 35.9872 19.5082 36.665 17.9319C32.3624 18.1066 28.2229 19.6267 24.8298 22.2781C21.4366 24.9296 18.9608 28.5787 17.7511 32.7115C16.5414 36.8444 16.6587 41.2525 18.0866 45.3152C19.5144 49.3778 22.1808 52.89 25.7102 55.3573C29.2396 57.8245 33.454 59.1222 37.7599 59.0678C42.0658 59.0133 46.2461 57.6094 49.7119 55.0537C53.1778 52.4981 55.7545 48.9195 57.0792 44.8221C58.4038 40.7247 58.4097 36.3149 57.0958 32.214C56.1286 32.724 55.0544 32.9928 53.9611 32.9977Z" stroke="black" stroke-width="1.56" stroke-linecap="round" stroke-linejoin="round"/>
<path d="M29.2109 39.8532C29.7519 39.8532 30.2876 39.7466 30.7875 39.5395C31.2873 39.3325 31.7415 39.029 32.124 38.6465C32.5066 38.2639 32.8101 37.8097 33.0171 37.3099C33.2242 36.8101 33.3307 36.2743 33.3307 35.7333C33.3307 35.1923 33.2242 34.6566 33.0171 34.1567C32.8101 33.6569 32.5066 33.2027 32.124 32.8201C31.7415 32.4376 31.2873 32.1341 30.7875 31.9271C30.2876 31.72 29.7519 31.6135 29.2109 31.6135C28.1182 31.6135 27.0703 32.0475 26.2977 32.8201C25.5251 33.5928 25.091 34.6407 25.091 35.7333C25.091 36.826 25.5251 37.8739 26.2977 38.6465C27.0703 39.4191 28.1182 39.8532 29.2109 39.8532Z" stroke="black" stroke-width="1.56" stroke-linecap="round" stroke-linejoin="round"/>
<path d="M41.5704 50.8394C42.2988 50.8394 42.9974 50.55 43.5125 50.0349C44.0276 49.5198 44.317 48.8212 44.317 48.0928C44.317 47.3644 44.0276 46.6658 43.5125 46.1507C42.9974 45.6356 42.2988 45.3463 41.5704 45.3463C40.842 45.3463 40.1434 45.6356 39.6283 46.1507C39.1132 46.6658 38.8239 47.3644 38.8239 48.0928C38.8239 48.8212 39.1132 49.5198 39.6283 50.0349C40.1434 50.55 40.842 50.8394 41.5704 50.8394Z" stroke="black" stroke-width="1.56" stroke-linecap="round" stroke-linejoin="round"/>
<path d="M28.5279 48.0928C28.3458 48.0928 28.1711 48.0205 28.0424 47.8917C27.9136 47.7629 27.8412 47.5883 27.8412 47.4062C27.8412 47.2241 27.9136 47.0494 28.0424 46.9207C28.1711 46.7919 28.3458 46.7195 28.5279 46.7195" stroke="black" stroke-width="1.56"/>
<path d="M28.5279 48.0928C28.71 48.0928 28.8847 48.0205 29.0134 47.8917C29.1422 47.7629 29.2145 47.5883 29.2145 47.4062C29.2145 47.2241 29.1422 47.0494 29.0134 46.9207C28.8847 46.7919 28.71 46.7195 28.5279 46.7195" stroke="black" stroke-width="1.56"/>
<path d="M39.5105 35.7333C39.3284 35.7333 39.1537 35.6609 39.025 35.5322C38.8962 35.4034 38.8239 35.2287 38.8239 35.0466C38.8239 34.8645 38.8962 34.6899 39.025 34.5611C39.1537 34.4323 39.3284 34.36 39.5105 34.36" stroke="black" stroke-width="1.56"/>
<path d="M39.5105 35.7333C39.6926 35.7333 39.8673 35.6609 39.996 35.5322C40.1248 35.4034 40.1971 35.2287 40.1971 35.0466C40.1971 34.8645 40.1248 34.6899 39.996 34.5611C39.8673 34.4323 39.6926 34.36 39.5105 34.36" stroke="black" stroke-width="1.56"/>
<path d="M50.4967 41.2283C50.3146 41.2283 50.14 41.1559 50.0112 41.0271C49.8824 40.8984 49.8101 40.7237 49.8101 40.5416C49.8101 40.3595 49.8824 40.1849 50.0112 40.0561C50.14 39.9273 50.3146 39.855 50.4967 39.855" stroke="black" stroke-width="1.56"/>
<path d="M50.4967 41.2283C50.6788 41.2283 50.8535 41.1559 50.9823 41.0271C51.111 40.8984 51.1834 40.7237 51.1834 40.5416C51.1834 40.3595 51.111 40.1849 50.9823 40.0561C50.8535 39.9273 50.6788 39.855 50.4967 39.855" stroke="black" stroke-width="1.56"/>
</svg>
