<svg width="76" height="76" viewBox="0 0 76 76" fill="none" xmlns="http://www.w3.org/2000/svg">
<circle cx="38" cy="38" r="38" fill="#E4E4E4"/>
<path d="M24.4347 43.9931H48.2565C48.2565 43.9931 51.6806 43.9931 51.6806 47.4172V47.4355C51.6806 47.4355 51.6806 50.8595 48.2565 50.8595H24.4347C24.4347 50.8595 21.0106 50.8595 21.0106 47.4355V47.4172C21.0106 47.4172 21.0106 43.9931 24.4347 43.9931Z" stroke="black" stroke-width="1.56" stroke-linecap="round" stroke-linejoin="round"/>
<path d="M39.1013 59.0992H33.6082C32.5255 59.1016 31.4529 58.8901 30.4522 58.4769C29.4514 58.0637 28.5421 57.4568 27.7765 56.6912C27.0109 55.9256 26.404 55.0163 25.9908 54.0155C25.5776 53.0148 25.3661 51.9422 25.3685 50.8595H47.341C47.341 53.0448 46.4729 55.1406 44.9277 56.6858C43.3824 58.2311 41.2866 59.0992 39.1013 59.0992Z" stroke="black" stroke-width="1.56" stroke-linecap="round" stroke-linejoin="round"/>
<path d="M56.4962 20.6473C56.4962 21.008 56.5673 21.3652 56.7053 21.6984C56.8433 22.0316 57.0456 22.3344 57.3007 22.5894C57.5557 22.8445 57.8585 23.0468 58.1917 23.1848C58.525 23.3228 58.8821 23.3939 59.2428 23.3939C59.6035 23.3939 59.9606 23.3228 60.2939 23.1848C60.6271 23.0468 60.9299 22.8445 61.1849 22.5894C61.44 22.3344 61.6423 22.0316 61.7803 21.6984C61.9183 21.3652 61.9894 21.008 61.9894 20.6473C61.9894 20.2866 61.9183 19.9295 61.7803 19.5963C61.6423 19.263 61.44 18.9602 61.1849 18.7052C60.9299 18.4502 60.6271 18.2479 60.2939 18.1098C59.9606 17.9718 59.6035 17.9008 59.2428 17.9008C58.8821 17.9008 58.525 17.9718 58.1917 18.1098C57.8585 18.2479 57.5557 18.4502 57.3007 18.7052C57.0456 18.9602 56.8433 19.263 56.7053 19.5963C56.5673 19.9295 56.4962 20.2866 56.4962 20.6473Z" stroke="black" stroke-width="1.56" stroke-linecap="round" stroke-linejoin="round"/>
<path d="M41.3901 34.6731C41.2634 35.485 40.8504 36.2248 40.2258 36.7587C39.6011 37.2926 38.8061 37.5855 37.9844 37.5844C37.0763 37.5844 36.2054 37.2237 35.5632 36.5816C34.9211 35.9394 34.5604 35.0685 34.5604 34.1604V35.552C34.5555 36.4618 34.1907 37.3327 33.5457 37.9743C32.9006 38.6159 32.0278 38.9761 31.118 38.976C30.2099 38.976 29.339 38.6153 28.6968 37.9732C28.0547 37.331 27.6939 36.4601 27.6939 35.552V34.1421" stroke="black" stroke-width="1.56" stroke-linecap="round" stroke-linejoin="round"/>
<path d="M56.6244 21.4896L46.1508 24.8221" stroke="black" stroke-width="1.56" stroke-linecap="round" stroke-linejoin="round"/>
<path d="M41.8699 20.4221C41.8699 20.4221 44.4883 19.589 45.3214 22.2056L46.9876 27.4405C46.9876 27.4405 47.8226 30.0571 45.206 30.8902C45.206 30.8902 42.5876 31.7233 41.7545 29.1068L40.0883 23.8736C40.0883 23.8736 39.2533 21.2552 41.8699 20.4221Z" stroke="black" stroke-width="1.56" stroke-linecap="round" stroke-linejoin="round"/>
<path d="M30.5138 30.0405L29.6165 27.2024C29.4045 26.5007 29.4778 25.7436 29.8207 25.0957C30.1635 24.4477 30.7481 23.9612 31.4476 23.7418C31.795 23.6343 32.1603 23.5964 32.5224 23.6303C32.8845 23.6641 33.2364 23.7691 33.5578 23.9392C33.8793 24.1093 34.1641 24.3412 34.3958 24.6215C34.6275 24.9018 34.8017 25.2251 34.9083 25.5728L36.19 29.6194" stroke="black" stroke-width="1.56" stroke-linecap="round" stroke-linejoin="round"/>
<path d="M35.7139 28.2461L34.011 22.9178C33.9035 22.5704 33.8657 22.2051 33.8995 21.843C33.9334 21.4809 34.0384 21.129 34.2085 20.8076C34.3786 20.4861 34.6104 20.2013 34.8908 19.9696C35.1711 19.7379 35.4944 19.5637 35.8421 19.4571C36.1883 19.3499 36.5523 19.3122 36.9132 19.3464C37.274 19.3805 37.6245 19.4857 37.9445 19.6559C38.2645 19.8261 38.5477 20.0579 38.7776 20.3381C39.0076 20.6182 39.1799 20.9411 39.2844 21.2882L40.3648 24.6939" stroke="black" stroke-width="1.56" stroke-linecap="round" stroke-linejoin="round"/>
</svg>
